:SAMPLES-PER-SECOND 30
:FRAME-RANGE 1-2643
:FULLY-SPECIFIED
:DEGREES
413
root  0.143941 32.7379 32.9721 -148.386 68.7483 -149.311
RightUpLeg  -37.8561 -3.97633 -4.35996
RightLeg  57.2821 -0.181422 -0.781215
RightFoot  -19.996 1.38916 19.9769
RightToes  7.56698e-010 0 -3.6325e-017
Spine  17.4213 -4.07505 16.0618
Spine1  1.34679 -2.35981 5.23603
HEad  -2.18844 7.00305 -14.8298
LeftShoulder1  2.02479 -1.46371 -34.7041
LeftArm  29.0027 4.4175 -39.1656
LeftForeArm  -4.65588 -20.5662 -7.06915
LeftHand  0.232287 -1.56277 -3.75274
RightShoulder  10.6662 17.8637 43.4975
RightArm  -6.25573 16.9998 8.68053
RightForeArm  7.94127 31.3983 6.45145
RightHand  -0.0789481 3.46242 -1.2827
LeftUpLeg  -24.3573 8.43821 2.19044
LeftLeg  92.4377 -0.924095 8.46545
LeftFoot  -11.1486 0.0715856 -2.81372
LeftToes  1.48244e-010 1.61973e-010 3.308e-011
414
root  2.73667 32.8886 32.1377 -150.972 67.2893 -151.731
RightUpLeg  -32.032 -5.2702 -4.83739
RightLeg  58.1144 0.15689 -0.221225
RightFoot  -25.5883 2.4428 20.74
RightToes  7.56698e-010 0 -3.6325e-017
Spine  17.4854 -2.94368 18.3462
Spine1  0.798865 -0.479969 2.0109
HEad  -2.72874 3.37597 -13.3906
LeftShoulder1  2.01688 -1.47173 -34.4834
LeftArm  28.8684 10.3365 -34.531
LeftForeArm  -3.0044 -19.0981 -8.45841
LeftHand  0.19611 -1.03381 -3.46178
RightShoulder  11.3059 20.565 40.6942
RightArm  -14.4169 22.0291 7.88482
RightForeArm  9.89091 31.6411 6.40192
RightHand  -0.14307 3.46908 -2.12253
LeftUpLeg  -35.4214 11.8649 -0.625824
LeftLeg  92.0258 -0.907845 9.11099
LeftFoot  -12.5845 0.0426889 -3.01838
LeftToes  1.48244e-010 1.61973e-010 3.308e-011
415
root  5.37547 33.4729 31.0795 -154.16 66.5522 -154.803
RightUpLeg  -24.1879 -6.5205 -6.17749
RightLeg  54.8787 0.658128 0.568687
RightFoot  -28.7516 3.05179 21.004
RightToes  7.56698e-010 0 -3.6325e-017
Spine  17.7255 -1.29669 18.878
Spine1  -0.378755 1.5751 -0.846699
HEad  -2.29021 -1.41208 -11.5408
LeftShoulder1  1.88138 -1.22335 -33.7531
LeftArm  30.3301 17.4922 -30.1277
LeftForeArm  -5.87102 -21.3916 -6.43509
LeftHand  0.231612 -1.37661 -3.86324
RightShoulder  11.4582 22.7395 37.4738
RightArm  -19.2806 24.3768 8.59643
RightForeArm  13.3939 34.2352 6.87315
RightHand  -0.165288 3.57646 -2.39207
LeftUpLeg  -43.5405 15.4539 -4.6296
LeftLeg  84.3783 0.376132 9.93636
LeftFoot  -13.6579 -0.00301309 -4.19504
LeftToes  1.48244e-010 1.61973e-010 3.308e-011
416
root  8.01147 34.3332 29.942 -158.462 66.3848 -159.191
RightUpLeg  -15.9853 -7.5818 -8.67862
RightLeg  49.7851 1.70802 1.79768
RightFoot  -28.5542 3.3281 22.9996
RightToes  7.56698e-010 0 -3.6325e-017
Spine  18.4966 0.960403 16.3597
Spine1  -2.30949 3.60948 -2.39145
HEad  -0.790203 -7.24025 -8.16124
LeftShoulder1  1.79591 -1.26088 -31.6534
LeftArm  26.8698 24.6474 -27.3179
LeftForeArm  -5.86851 -23.7594 -5.37171
LeftHand  0.259659 -1.62104 -4.17052
RightShoulder  12.1473 24.3224 37.4246
RightArm  -17.9112 24.3134 9.18176
RightForeArm  14.1982 38.7498 8.10971
RightHand  -0.142837 3.7311 -2.0762
LeftUpLeg  -48.1201 19.5275 -9.06736
LeftLeg  70.8965 2.71961 9.62929
LeftFoot  -13.9333 -0.0436307 -5.61355
LeftToes  1.48244e-010 1.61973e-010 3.308e-011
417
root  10.5148 35.2325 28.7931 -162.19 65.2574 -163.264
RightUpLeg  -9.69135 -10.9219 -11.7657
RightLeg  46.8849 3.98918 4.22778
RightFoot  -23.243 2.78784 27.7618
RightToes  7.56698e-010 0 -3.6325e-017
Spine  18.1791 2.53198 12.6619
Spine1  -1.69986 4.70952 -3.145
HEad  -0.293256 -13.5745 -4.13776
LeftShoulder1  1.80387 -1.50641 -29.9526
LeftArm  20.0916 29.5119 -25.848
LeftForeArm  -0.745962 -25.3657 -5.47298
LeftHand  0.270993 -2.10339 -4.03403
RightShoulder  13.1654 24.9839 39.8637
RightArm  -11.8285 24.4202 10.8783
RightForeArm  16.9851 42.4053 9.10008
RightHand  -0.110148 4.36752 -1.5922
LeftUpLeg  -49.5009 21.0395 -11.5129
LeftLeg  53.2646 5.05776 7.71498
LeftFoot  -11.9462 0.0364718 -6.63237
LeftToes  1.48244e-010 1.61973e-010 3.308e-011
